<?xml version="1.0" standalone="no"?>
<!DOCTYPE svg PUBLIC "-//W3C//DTD SVG 20010904//EN"
 "http://www.w3.org/TR/2001/REC-SVG-20010904/DTD/svg10.dtd">
<svg version="1.0" xmlns="http://www.w3.org/2000/svg"
 width="582.000000pt" height="558.000000pt" viewBox="0 0 582.000000 558.000000"
 preserveAspectRatio="xMidYMid meet">
<metadata>
Created by potrace 1.10, written by Peter Selinger 2001-2011
</metadata>
<g transform="translate(0.000000,558.000000) scale(0.100000,-0.100000)"
fill="#000000" stroke="none">
<path d="M2065 3798 c-3 -7 -6 -114 -7 -238 l-3 -225 -80 -6 c-96 -7 -104 -10
-132 -52 l-23 -33 0 -521 c0 -485 1 -524 19 -579 45 -138 109 -210 246 -278
37 -19 67 -21 395 -26 l355 -5 5 -205 5 -205 115 0 115 0 5 205 5 205 355 5
c328 5 358 7 395 26 135 67 197 136 246 274 18 51 19 86 19 579 l0 525 -22 33
c-29 42 -37 45 -133 52 l-80 6 -5 235 -5 235 -325 0 -325 0 -5 -235 -5 -235
-235 0 -235 0 -5 235 -5 235 -323 3 c-253 2 -324 0 -327 -10z m1404 -996 c62
-52 90 -110 90 -188 1 -111 -59 -202 -156 -237 -61 -22 -95 -22 -157 0 -62 23
-128 94 -146 157 -28 101 7 217 83 271 54 39 77 45 166 40 68 -3 76 -6 120
-43z m-871 -194 l-3 -233 -25 0 -25 0 -3 233 -2 232 30 0 30 0 -2 -232z m412
222 c0 -6 -4 -18 -10 -28 -26 -46 -190 -393 -190 -402 0 -6 -12 -16 -26 -22
-20 -9 -27 -9 -34 2 -11 17 -10 18 72 190 39 80 79 165 91 190 12 25 28 53 36
63 15 18 61 24 61 7z"/>
<path d="M3270 2780 c-74 -18 -121 -114 -105 -213 28 -167 260 -187 314 -28
26 77 0 177 -56 218 -35 25 -103 35 -153 23z"/>
</g>
</svg>
