<?xml version="1.0" standalone="no"?>
<!DOCTYPE svg PUBLIC "-//W3C//DTD SVG 20010904//EN"
 "http://www.w3.org/TR/2001/REC-SVG-20010904/DTD/svg10.dtd">
<svg version="1.0" xmlns="http://www.w3.org/2000/svg"
 width="582.000000pt" height="558.000000pt" viewBox="0 0 582.000000 558.000000"
 preserveAspectRatio="xMidYMid meet">
<metadata>
Created by potrace 1.10, written by Peter Selinger 2001-2011
</metadata>
<g transform="translate(0.000000,558.000000) scale(0.100000,-0.100000)"
fill="#000000" stroke="none">
<path d="M2007 4514 c-4 -4 -7 -126 -7 -271 l0 -263 -98 0 c-90 0 -100 -2
-120 -23 -19 -21 -22 -34 -22 -120 l0 -97 -267 -2 -268 -3 0 -115 0 -115 268
-3 267 -2 0 -150 0 -150 -267 -2 -268 -3 0 -115 0 -115 268 -3 267 -2 0 -120
0 -120 -267 -2 -268 -3 0 -115 0 -115 268 -3 267 -2 0 -150 0 -150 -267 -2
-268 -3 0 -115 0 -115 268 -3 267 -2 0 -98 c0 -90 2 -100 23 -120 21 -19 34
-22 120 -22 l97 0 2 -267 3 -268 115 0 115 0 3 268 2 267 150 0 150 0 2 -267
3 -268 115 0 115 0 3 268 2 267 120 0 120 0 2 -267 3 -268 115 0 115 0 3 268
2 267 150 0 150 0 2 -267 3 -268 115 0 115 0 3 268 2 267 98 0 c90 0 100 2
120 23 19 21 22 34 22 120 l0 97 268 2 267 3 0 115 0 115 -267 3 -268 2 0 150
0 150 268 2 267 3 0 115 0 115 -267 3 -268 2 0 120 0 120 268 2 267 3 0 115 0
115 -267 3 -268 2 0 150 0 150 268 2 267 3 0 115 0 115 -267 3 -268 2 0 98 c0
90 -2 100 -23 120 -21 19 -34 22 -120 22 l-97 0 -2 268 -3 267 -115 0 -115 0
-3 -267 -2 -268 -150 0 -150 0 -2 268 -3 267 -115 0 -115 0 -3 -267 -2 -268
-120 0 -120 0 -2 268 -3 267 -115 0 -115 0 -3 -267 -2 -268 -150 0 -150 0 -2
268 -3 267 -111 3 c-60 1 -113 -1 -117 -4z m466 -1467 c33 -22 67 -74 67 -103
0 -12 -11 -38 -25 -58 -14 -20 -25 -40 -25 -43 0 -4 12 -20 27 -35 23 -24 27
-37 27 -83 -1 -56 -11 -72 -63 -107 -21 -14 -48 -18 -133 -18 l-108 0 0 234
c0 145 4 236 10 238 5 2 52 1 103 -2 66 -4 101 -10 120 -23z m528 14 c92 -41
139 -118 139 -229 0 -98 -36 -163 -120 -215 -47 -30 -179 -31 -225 -2 -70 44
-125 137 -125 213 0 94 62 194 143 231 55 25 133 26 188 2z m512 3 c37 -19 76
-62 77 -85 0 -9 -10 -20 -22 -26 -19 -8 -27 -4 -58 29 -44 45 -84 50 -130 16
-44 -32 -42 -79 4 -107 18 -12 45 -21 59 -21 37 0 108 -37 131 -68 24 -31 26
-110 4 -141 -35 -50 -68 -65 -142 -66 -82 0 -125 20 -156 73 -24 40 -24 46 -4
66 23 23 31 20 60 -24 29 -43 75 -63 124 -53 38 7 73 45 68 74 -4 32 -60 67
-117 75 -33 4 -60 16 -87 39 -37 31 -39 35 -39 93 0 51 4 64 25 85 58 56 139
73 203 41z"/>
<path d="M2305 2987 c-4 -13 -5 -43 -3 -68 l3 -44 64 0 c62 0 66 1 83 31 34
59 -8 104 -97 104 -38 0 -45 -3 -50 -23z"/>
<path d="M2311 2796 c-7 -9 -11 -38 -9 -73 l3 -58 64 -3 c54 -3 67 0 87 19 23
22 31 63 16 85 -29 41 -135 61 -161 30z"/>
<path d="M2845 3001 c-22 -10 -53 -34 -68 -55 -25 -32 -28 -45 -29 -109 0
-123 49 -177 161 -177 55 0 68 4 100 30 27 20 43 44 54 81 21 63 21 67 1 126
-20 60 -37 79 -91 104 -52 24 -77 24 -128 0z"/>
</g>
</svg>
