<?xml version="1.0" standalone="no"?>
<!DOCTYPE svg PUBLIC "-//W3C//DTD SVG 20010904//EN"
 "http://www.w3.org/TR/2001/REC-SVG-20010904/DTD/svg10.dtd">
<svg version="1.0" xmlns="http://www.w3.org/2000/svg"
 width="582.000000pt" height="558.000000pt" viewBox="0 0 582.000000 558.000000"
 preserveAspectRatio="xMidYMid meet">
<metadata>
Created by potrace 1.10, written by Peter Selinger 2001-2011
</metadata>
<g transform="translate(0.000000,558.000000) scale(0.100000,-0.100000)"
fill="#000000" stroke="none">
<path d="M2695 4625 c-22 -8 -48 -15 -57 -15 -21 0 -134 -49 -193 -84 -158
-92 -274 -222 -366 -408 -17 -33 -47 -133 -60 -198 -27 -128 -15 -290 32 -433
20 -61 24 -68 80 -172 49 -93 205 -253 290 -300 142 -78 236 -109 379 -125 74
-8 118 -7 200 4 124 17 168 31 280 85 197 95 360 282 439 501 24 67 50 215 50
285 0 178 -72 389 -184 534 -34 45 -169 173 -207 197 -74 47 -219 114 -246
114 -9 0 -35 7 -57 15 -28 10 -85 14 -190 14 -105 0 -162 -4 -190 -14z"/>
<path d="M2405 2541 c-55 -10 -146 -55 -196 -97 -79 -66 -131 -147 -163 -253
-24 -81 -24 -626 1 -679 24 -52 46 -79 95 -115 l43 -32 716 0 c669 0 718 1
736 18 11 9 23 17 28 17 15 0 66 64 86 107 17 38 19 67 19 336 0 242 -3 304
-16 348 -45 151 -125 247 -264 316 l-75 38 -485 2 c-267 0 -503 -2 -525 -6z"/>
</g>
</svg>
