<?xml version="1.0" standalone="no"?>
<!DOCTYPE svg PUBLIC "-//W3C//DTD SVG 20010904//EN"
 "http://www.w3.org/TR/2001/REC-SVG-20010904/DTD/svg10.dtd">
<svg version="1.0" xmlns="http://www.w3.org/2000/svg"
 width="836.000000pt" height="250.000000pt" viewBox="0 0 836.000000 250.000000"
 preserveAspectRatio="xMidYMid meet">

<g transform="translate(0.000000,250.000000) scale(0.100000,-0.100000)"
fill="#000000" stroke="none">
<path d="M965 2106 c-99 -31 -202 -106 -336 -243 -161 -164 -214 -266 -207
-397 5 -100 44 -178 148 -289 82 -87 229 -207 255 -207 7 0 38 28 68 61 l55
62 -57 47 c-110 92 -239 235 -250 277 -23 83 26 169 182 322 128 126 223 179
293 165 48 -9 117 -67 216 -179 l93 -105 52 52 c29 29 56 61 59 71 12 37 -169
240 -277 311 -96 63 -201 82 -294 52z"/>
<path d="M1986 1619 c-64 -15 -94 -44 -112 -107 -32 -109 0 -239 71 -282 16
-10 86 -34 154 -54 158 -45 171 -56 171 -146 0 -59 -3 -69 -26 -91 -25 -23
-32 -24 -194 -27 l-168 -3 -6 -32 c-3 -17 -3 -34 2 -39 14 -14 215 -31 296
-24 161 12 211 64 210 216 -1 147 -40 190 -220 239 -65 18 -131 39 -145 47
-63 32 -65 175 -3 203 15 7 85 11 178 11 l154 0 4 36 c2 19 1 37 -3 39 -34 22
-290 31 -363 14z"/>
<path d="M2638 1623 l-68 -4 0 -77 c0 -42 -3 -220 -6 -394 l-6 -318 61 0 61 0
0 153 0 152 148 0 c176 0 202 10 242 90 21 42 24 63 24 150 0 87 -3 108 -24
150 -38 76 -84 95 -241 99 -68 2 -154 2 -191 -1z m299 -113 c37 -22 49 -61 46
-153 -3 -109 -45 -137 -203 -137 l-100 0 -2 103 c0 56 -2 122 -3 147 -1 25 0
48 2 53 2 4 55 7 116 7 93 0 117 -3 144 -20z"/>
<path d="M5940 1623 c-143 -24 -205 -97 -231 -272 -25 -177 7 -390 71 -459 56
-61 107 -77 255 -76 72 0 148 6 170 12 39 11 40 13 37 50 l-4 39 -132 -5
c-153 -5 -191 3 -235 53 -41 48 -54 118 -49 288 3 128 6 147 28 191 38 76 66
86 231 86 l137 0 4 36 c2 19 1 37 -3 39 -27 17 -214 29 -279 18z"/>
<path d="M6551 1615 c-74 -21 -119 -57 -147 -120 -34 -73 -44 -139 -44 -282 0
-219 39 -320 145 -373 44 -22 63 -25 160 -25 124 0 169 12 221 58 60 52 80
104 93 243 12 119 -1 283 -29 356 -24 66 -79 121 -137 138 -65 19 -202 22
-262 5z m238 -107 c12 -7 34 -38 49 -68 26 -53 27 -61 27 -220 0 -156 -1 -168
-25 -214 -35 -70 -66 -90 -149 -94 -92 -5 -151 20 -180 76 -38 75 -52 240 -30
372 17 109 61 160 147 170 56 7 132 -3 161 -22z"/>
<path d="M3254 1611 c-2 -2 -4 -179 -4 -393 l0 -388 55 0 55 0 0 389 0 389
-51 4 c-28 1 -53 1 -55 -1z"/>
<path d="M4139 1612 l-47 -3 -7 -235 c-4 -129 -4 -280 -1 -334 8 -106 -3 -136
-28 -78 -63 145 -286 620 -296 633 -10 12 -30 15 -94 13 l-81 -3 -3 -387 -2
-388 56 0 56 0 -4 340 c-2 191 1 339 6 337 5 -2 77 -153 161 -337 l153 -335
86 -3 c64 -2 88 1 91 10 3 7 4 184 3 393 l-3 380 -46 -3z"/>
<path d="M4573 1598 c-6 -7 -24 -56 -41 -108 -16 -52 -68 -212 -114 -355 -47
-143 -88 -270 -92 -283 -7 -22 -6 -23 49 -20 l57 3 33 109 c18 59 37 112 42
117 5 5 79 8 163 7 l154 -3 35 -117 34 -118 58 0 57 0 -74 228 c-40 125 -98
299 -127 387 l-54 160 -85 3 c-60 2 -88 -1 -95 -10z m163 -248 c29 -96 54
-178 54 -182 0 -5 -56 -8 -125 -8 -93 0 -125 3 -125 13 0 6 23 90 52 185 70
228 72 228 144 -8z"/>
<path d="M5140 1275 c0 -353 3 -378 46 -417 35 -31 109 -40 272 -32 l153 7 -3
41 -3 41 -160 3 c-149 2 -161 4 -177 23 -16 19 -18 51 -18 345 l0 324 -55 0
-55 0 0 -335z"/>
<path d="M7200 1588 c-5 -13 -14 -147 -19 -298 -6 -151 -14 -317 -17 -367 l-6
-93 56 0 56 0 1 38 c0 20 6 177 12 347 10 261 14 310 27 310 10 0 37 -78 96
-287 45 -158 87 -295 94 -303 16 -19 152 -21 168 -2 5 6 44 136 86 287 42 151
80 281 85 289 30 56 37 0 46 -349 3 -118 8 -241 11 -272 l6 -58 54 0 55 0 -6
98 c-4 53 -12 224 -19 378 -7 155 -16 286 -20 293 -10 16 -180 15 -194 -1 -9
-12 -132 -421 -163 -541 -6 -26 -15 -50 -20 -53 -13 -7 -19 11 -104 306 -43
146 -81 273 -86 283 -8 14 -24 17 -100 17 -83 0 -90 -2 -99 -22z"/>
<path d="M998 1476 l-57 -63 50 -37 c94 -70 230 -198 254 -241 59 -100 20
-190 -160 -371 -128 -130 -182 -165 -250 -166 -72 -2 -126 39 -304 226 -72 76
-65 77 -143 -16 l-39 -47 29 -44 c48 -69 168 -192 240 -247 96 -72 157 -93
257 -88 124 6 196 49 356 208 145 143 217 245 244 344 40 147 0 252 -155 406
-80 81 -236 201 -258 200 -4 -1 -33 -29 -64 -64z"/>
</g>
</svg>
